<svg viewBox="1 1 511.99998 511.99998" xmlns="http://www.w3.org/2000/svg"><path d="m512 256c0 99.066406-56.269531 184.988281-138.59375 227.546875-12.332031 6.375-25.246094 11.777344-38.632812 16.101563-24.816407 8.027343-51.292969 12.351562-78.773438 12.351562s-53.957031-4.324219-78.773438-12.351562c-13.386718-4.324219-26.300781-9.726563-38.632812-16.101563-82.324219-42.558594-138.59375-128.480469-138.59375-227.546875 0-141.386719 114.613281-256 256-256s256 114.613281 256 256zm0 0" fill="#f7d65e"/><path d="m245.4375 356.164062-17.097656 35.953126-51.113282 107.53125c-13.386718-4.324219-26.300781-9.726563-38.632812-16.101563l43.46875-91.429687 24.191406-50.886719 1.429688-3.019531 6.351562 3.019531zm0 0" fill="#4d4d4d"/><path d="m373.40625 483.546875c-12.332031 6.375-25.246094 11.777344-38.632812 16.101563l-51.113282-107.53125-17.097656-35.953126 31.390625-14.933593 6.351563-3.019531 1.433593 3.019531 24.199219 50.886719zm0 0" fill="#4d4d4d"/><path d="m245.4375 356.164062-17.097656 35.953126h-46.277344l24.191406-50.886719h7.78125zm0 0" fill="#424242"/><path d="m329.9375 392.117188h-46.277344l-17.097656-35.953126 31.390625-14.933593h7.785156zm0 0" fill="#424242"/><path d="m166.949219 34.894531h-52.347657c-5.960937 0-10.792968 4.832031-10.792968 10.792969v20.300781h73.933594v-20.300781c0-5.960938-4.832032-10.792969-10.792969-10.792969zm0 0" fill="#808080"/><path d="m131.53125 34.894531h-16.929688c-5.960937 0-10.792968 4.832031-10.792968 10.792969v20.300781h16.929687v-20.300781c0-5.960938 4.832031-10.792969 10.792969-10.792969zm0 0" fill="#4d4d4d"/><path d="m448.261719 95.238281v198.984375c0 10.378906-8.410157 18.792969-18.789063 18.792969h-346.949218c-10.378907 0-18.792969-8.414063-18.792969-18.792969v-198.984375c0-13.765625 8.425781-25.570312 20.402343-30.542969 3.898438-1.613281 8.167969-2.503906 12.652344-2.503906h318.421875c4.484375 0 8.753907.890625 12.652344 2.515625 11.980469 4.960938 20.402344 16.765625 20.402344 30.53125zm0 0" fill="#666"/><path d="m112.160156 95.242188v198.980468c0 10.378906 8.40625 18.796875 18.785156 18.796875h-48.421874c-10.375 0-18.792969-8.417969-18.792969-18.796875v-198.980468c0-13.765626 8.425781-25.570313 20.402343-30.542969 3.898438-1.613281 8.167969-2.503907 12.652344-2.503907h48.429688c-4.484375 0-8.753906.890626-12.652344 2.503907-11.980469 4.972656-20.402344 16.777343-20.402344 30.542969zm0 0" fill="#4d4d4d"/><path d="m426.148438 242.535156c0 15.261719-12.375 27.636719-27.640626 27.636719-15.261718 0-27.636718-12.375-27.636718-27.636719 0-15.265625 12.375-27.640625 27.636718-27.640625 15.265626 0 27.640626 12.375 27.640626 27.640625zm0 0" fill="#424242"/><path d="m413.15625 187.082031c-.738281 66.996094-55.277344 84.472657-122.441406 84.472657-67.160156 0-121.699219-17.476563-122.4375-84.472657l3.992187-32.597656 13.597657-110.871094c3.058593-24.90625 24.203124-43.613281 49.285156-43.613281h111.128906c25.082031 0 46.226562 18.707031 49.285156 43.613281l13.597656 110.871094zm0 0" fill="#4d4d4d"/><path d="m413.175781 185.683594c0 .464844 0 .933594-.019531 1.398437-.738281 66.996094-55.277344 121.070313-122.441406 121.070313-67.160156 0-121.699219-54.074219-122.4375-121.070313-.019532-.464843-.019532-.933593-.019532-1.398437 0-10.777344 1.390626-21.238282 4.011719-31.199219 13.796875-52.515625 61.597657-91.257813 118.445313-91.257813 56.851562 0 104.652344 38.742188 118.449218 91.257813 2.621094 9.960937 4.011719 20.421875 4.011719 31.199219zm0 0" fill="#808080"/><path d="m385.910156 185.6875c0 .363281 0 .726562-.019531 1.089844-.371094 33.546875-18.101563 62.925781-44.617187 79.578125-14.648438 9.199219-31.984376 14.527343-50.558594 14.527343-52.203125 0-94.597656-42.035156-95.175782-94.105468-.015624-.363282-.015624-.726563-.015624-1.089844 0-8.382812 1.078124-16.511719 3.125-24.25 10.722656-40.832031 47.875-70.941406 92.066406-70.941406 18.574218 0 35.910156 5.316406 50.558594 14.523437 20.203124 12.679688 35.304687 32.75 41.519531 56.417969 2.035156 7.738281 3.117187 15.867188 3.117187 24.25zm0 0" fill="#4d4d4d"/><path d="m385.910156 185.6875c0 .363281 0 .726562-.019531 1.089844-.371094 33.546875-18.101563 62.925781-44.617187 79.578125-26.527344-16.652344-44.257813-46.03125-44.621094-79.578125-.015625-.363282-.015625-.726563-.015625-1.089844 0-8.382812 1.078125-16.511719 3.113281-24.25 6.214844-23.667969 21.316406-43.738281 41.523438-56.417969 20.203124 12.675781 35.304687 32.75 41.519531 56.417969 2.035156 7.738281 3.117187 15.867188 3.117187 24.25zm0 0" fill="#666"/><path d="m342.296875 185.6875c0 .195312 0 .390625-.007813.589844-.3125 28.21875-23.28125 50.992187-51.570312 50.992187s-51.261719-22.773437-51.570312-50.992187c-.007813-.199219-.007813-.394532-.007813-.589844 0-4.539062.585937-8.945312 1.6875-13.140625 5.8125-22.121094 25.945313-38.4375 49.890625-38.4375s44.078125 16.316406 49.890625 38.4375c1.101563 4.195313 1.6875 8.601563 1.6875 13.140625zm0 0" fill="#424242"/><path d="m334.777344 185.6875c0 .167969 0 .335938-.007813.503906-.265625 24.105469-19.886719 43.558594-44.054687 43.558594-24.164063 0-43.785156-19.453125-44.050782-43.558594-.007812-.167968-.007812-.335937-.007812-.503906 0-3.878906.5-7.640625 1.441406-11.226562 4.964844-18.894532 22.164063-32.832032 42.617188-32.832032 20.457031 0 37.65625 13.9375 42.617187 32.832032.945313 3.585937 1.445313 7.347656 1.445313 11.226562zm0 0" fill="#666"/><path d="m311.914062 198.050781c-1.039062 1.78125-2.324218 3.460938-3.847656 4.984375-.070312.0625-.132812.132813-.207031.195313-5.792969 5.667969-13.722656 7.886719-21.175781 6.652343-.300782-.050781-.589844-.101562-.890625-.164062-4.558594-.921875-8.890625-3.152344-12.425781-6.6875-3.535157-3.53125-5.761719-7.875-6.683594-12.425781-.0625-.300781-.117188-.589844-.167969-.890625-1.234375-7.453125.984375-15.371094 6.664063-21.175782.0625-.0625.125-.132812.195312-.195312 1.523438-1.523438 3.203125-2.808594 4.988281-3.855469 5.003907-2.925781 10.828125-3.917969 16.394531-2.996093.175782.03125.34375.058593.519532.09375 4.683594.878906 9.171875 3.140624 12.789062 6.753906 3.628906 3.628906 5.875 8.105468 6.746094 12.800781.03125.167969.0625.34375.09375.507813v.011718c.925781 5.566406-.070312 11.382813-2.992188 16.390625zm0 0" fill="#424242"/><path d="m345.746094 13.070312h-110.058594c-8.667969 0-15.695312 8.597657-15.695312 19.203126 0 10.605468 7.027343 19.207031 15.695312 19.207031h110.058594c8.667968 0 15.695312-8.601563 15.695312-19.207031 0-10.605469-7.027344-19.203126-15.695312-19.203126zm0 0" fill="#e6e6e6"/><path d="m157.253906 313.015625h197.484375v50.890625h-197.484375zm0 0" fill="#4d4d4d"/><path d="m157.253906 313.015625h44.410156v50.890625h-44.410156zm0 0" fill="#424242"/></svg>