<svg viewBox="1 1 511.99998 511.99998" xmlns="http://www.w3.org/2000/svg"><path d="m512 256c0 129.347656-95.933594 236.292969-220.527344 253.554688-11.597656 1.621093-23.433594 2.445312-35.472656 2.445312-3.175781 0-6.332031-.0625-9.476562-.175781-15.265626-.554688-30.1875-2.445313-44.648438-5.5625-13.910156-2.988281-27.398438-7.113281-40.363281-12.265625-94.617188-37.59375-161.511719-129.984375-161.511719-237.996094 0-141.386719 114.613281-256 256-256s256 114.613281 256 256zm0 0" fill="#ff7591"/><path d="m360.054688 178.773438h86.117187v111.273437h-86.117187zm0 0" fill="#3b3b3b"/><path d="m199.9375 139.0625h-169.007812v-83.0625h169.007812c22.9375 0 41.53125 18.59375 41.53125 41.53125s-18.59375 41.53125-41.53125 41.53125zm0 0" fill="#3b3b3b"/><path d="m65.410156 52.214844v89.066406c0 10.03125-8.128906 18.160156-18.160156 18.160156h-29.101562c-10.019532 0-18.148438-8.128906-18.148438-18.160156v-89.066406c0-10.03125 8.128906-18.160156 18.148438-18.160156h29.101562c10.03125 0 18.160156 8.128906 18.160156 18.160156zm0 0" fill="#3b3b3b"/><path d="m65.410156 52.214844v48.316406c0 10.03125-8.128906 18.160156-18.160156 18.160156h-29.101562c-10.019532 0-18.148438-8.128906-18.148438-18.160156v-48.316406c0-10.03125 8.128906-18.160156 18.148438-18.160156h29.101562c10.03125 0 18.160156 8.128906 18.160156 18.160156zm0 0" fill="#4a4a4a"/><path d="m327.300781 396.621094h-208.757812c-14.628907 0-26.488281-11.855469-26.488281-26.484375v-28.367188h261.734374v28.367188c0 14.628906-11.859374 26.484375-26.488281 26.484375zm0 0" fill="#3b3b3b"/><path d="m273.300781 454.609375h-100.761719c-14.15625 0-25.632812-11.472656-25.632812-25.628906v-62.8125h152.027344v62.8125c0 14.15625-11.476563 25.628906-25.632813 25.628906zm0 0" fill="#3b3b3b"/><path d="m363.171875 360.574219h-294.605469c-15.59375 0-28.230468-12.640625-28.230468-28.230469v-195.867188c0-15.589843 12.636718-28.230468 28.230468-28.230468h294.605469c15.589844 0 28.230469 12.640625 28.230469 28.230468v195.867188c0 15.589844-12.640625 28.230469-28.230469 28.230469zm0 0" fill="#4a4a4a"/><path d="m512 174.363281v120.089844c0 13.144531-10.65625 23.800781-23.804688 23.800781h-38.511718c-13.144532 0-23.804688-10.65625-23.804688-23.800781v-120.089844c0-13.144531 10.660156-23.804687 23.804688-23.804687h38.511718c13.148438 0 23.804688 10.660156 23.804688 23.804687zm0 0" fill="#3b3b3b"/><path d="m512 174.363281v78.074219c0 13.144531-10.65625 23.800781-23.804688 23.800781h-38.511718c-13.144532 0-23.804688-10.65625-23.804688-23.800781v-78.074219c0-13.144531 10.660156-23.804687 23.804688-23.804687h38.511718c13.148438 0 23.804688 10.660156 23.804688 23.804687zm0 0" fill="#4a4a4a"/><path d="m105.78125 325.574219c-19.09375 0-34.625-15.53125-34.625-34.625v-116.210938c0-19.09375 15.53125-34.625 34.625-34.625h180.46875c19.089844 0 34.625 15.53125 34.625 34.625v116.210938c0 19.09375-15.53125 34.625-34.625 34.625zm0 0" fill="#3b3b3b"/><path d="m286.25 150.5625h-180.46875c-13.351562 0-24.175781 10.824219-24.175781 24.175781v116.210938c0 13.351562 10.824219 24.175781 24.175781 24.175781h180.46875c13.351562 0 24.175781-10.824219 24.175781-24.175781v-116.210938c0-13.355469-10.824219-24.175781-24.175781-24.175781zm0 0" fill="#797979"/><g fill="#3b3b3b"><path d="m180.652344 232.84375c0 20.773438-16.839844 37.613281-37.613282 37.613281-20.777343 0-37.617187-16.839843-37.617187-37.613281s16.839844-37.613281 37.617187-37.613281c20.773438 0 37.613282 16.839843 37.613282 37.613281zm0 0"/><path d="m286.605469 232.84375c0 20.773438-16.839844 37.613281-37.613281 37.613281-20.773438 0-37.613282-16.839843-37.613282-37.613281s16.839844-37.613281 37.613282-37.613281c20.773437 0 37.613281 16.839843 37.613281 37.613281zm0 0"/><path d="m241.914062 419.117188-18.984374 41.339843-21.054688 45.804688c-13.910156-2.988281-27.398438-7.113281-40.363281-12.265625l42.421875-92.328125 18.996094 8.726562zm0 0"/><path d="m291.472656 509.554688c-11.597656 1.621093-23.433594 2.445312-35.472656 2.445312-3.175781 0-6.332031-.0625-9.476562-.175781l-23.59375-51.367188-18.996094-41.339843 18.996094-8.722657 18.984374-8.726562zm0 0"/></g><path d="m367.109375 167.015625c0 9.089844-7.367187 16.457031-16.457031 16.457031-9.085938 0-16.457032-7.367187-16.457032-16.457031 0-9.085937 7.371094-16.453125 16.457032-16.453125 9.089844 0 16.457031 7.367188 16.457031 16.453125zm0 0" fill="#66ccb5"/><path d="m367.109375 214.296875c0 9.089844-7.367187 16.457031-16.457031 16.457031-9.085938 0-16.457032-7.367187-16.457032-16.457031s7.371094-16.457031 16.457032-16.457031c9.089844 0 16.457031 7.367187 16.457031 16.457031zm0 0" fill="#ffd861"/></svg>